<?xml version="1.0" encoding="UTF-8" standalone="no"?>
<!DOCTYPE svg PUBLIC "-//W3C//DTD SVG 1.1//EN"
 "http://www.w3.org/Graphics/SVG/1.1/DTD/svg11.dtd">
<!-- Generated by graphviz version 2.38.0 (20140413.2041)
 -->
<!-- Title: uartbus_features Pages: 1 -->
<svg width="3106pt" height="937pt"
 viewBox="0.00 0.00 3106.00 937.40" xmlns="http://www.w3.org/2000/svg" xmlns:xlink="http://www.w3.org/1999/xlink">
<g id="graph0" class="graph" transform="scale(1 1) rotate(0) translate(4 933.4)">
<title>uartbus_features</title>
<polygon fill="white" stroke="none" points="-4,4 -4,-933.4 3102,-933.4 3102,4 -4,4"/>
<g id="clust1" class="cluster"><title>cluster0</title>
<polygon fill="none" stroke="black" points="1996,-342.885 1996,-785.027 2300,-785.027 2300,-342.885 1996,-342.885"/>
</g>
<g id="clust2" class="cluster"><title>cluster1</title>
<polygon fill="none" stroke="black" points="8,-180.466 8,-785.027 887,-785.027 887,-180.466 8,-180.466"/>
</g>
<g id="clust3" class="cluster"><title>cluster2</title>
<polygon fill="none" stroke="black" points="895,-342.885 895,-785.027 1308,-785.027 1308,-342.885 895,-342.885"/>
</g>
<g id="clust4" class="cluster"><title>cluster3</title>
<polygon fill="none" stroke="black" points="1316,-180.466 1316,-785.027 1988,-785.027 1988,-180.466 1316,-180.466"/>
</g>
<g id="clust5" class="cluster"><title>cluster4</title>
<polygon fill="none" stroke="black" points="2802,-18.0466 2802,-785.027 3090,-785.027 3090,-18.0466 2802,-18.0466"/>
</g>
<g id="clust6" class="cluster"><title>cluster5</title>
<polygon fill="none" stroke="black" points="2308,-342.885 2308,-785.027 2794,-785.027 2794,-342.885 2308,-342.885"/>
</g>
<!-- Microcontroller -->
<g id="node1" class="node"><title>Microcontroller</title>
<ellipse fill="none" stroke="black" cx="1950" cy="-889.047" rx="68.7879" ry="18"/>
<text text-anchor="middle" x="1950" y="-885.347" font-family="Times,serif" font-size="14.00">Microcontroller</text>
</g>
<!-- Bus driver -->
<g id="node2" class="node"><title>Bus driver</title>
<ellipse fill="none" stroke="black" cx="2066" cy="-726.047" rx="48.1917" ry="18"/>
<text text-anchor="middle" x="2066" y="-722.347" font-family="Times,serif" font-size="14.00">Bus driver</text>
</g>
<!-- Microcontroller&#45;&gt;Bus driver -->
<g id="edge1" class="edge"><title>Microcontroller&#45;&gt;Bus driver</title>
<path fill="none" stroke="black" d="M1962.19,-871.121C1982.7,-842.662 2024.17,-785.099 2048.02,-751.996"/>
<polygon fill="black" stroke="black" points="2050.96,-753.905 2053.97,-743.745 2045.28,-749.813 2050.96,-753.905"/>
</g>
<!-- UARTBus datalink layer -->
<g id="node5" class="node"><title>UARTBus datalink layer</title>
<ellipse fill="none" stroke="black" cx="668" cy="-726.047" rx="100.983" ry="18"/>
<text text-anchor="middle" x="668" y="-722.347" font-family="Times,serif" font-size="14.00">UARTBus datalink layer</text>
</g>
<!-- Microcontroller&#45;&gt;UARTBus datalink layer -->
<g id="edge4" class="edge"><title>Microcontroller&#45;&gt;UARTBus datalink layer</title>
<path fill="none" stroke="black" d="M1889.46,-880.443C1682.75,-854.484 1004.12,-769.259 758.099,-738.362"/>
<polygon fill="black" stroke="black" points="758.478,-734.882 748.12,-737.109 757.606,-741.827 758.478,-734.882"/>
</g>
<!-- UARTBus addressing -->
<g id="node14" class="node"><title>UARTBus addressing</title>
<ellipse fill="none" stroke="black" cx="1193" cy="-726.047" rx="89.8845" ry="18"/>
<text text-anchor="middle" x="1193" y="-722.347" font-family="Times,serif" font-size="14.00">UARTBus addressing</text>
</g>
<!-- Microcontroller&#45;&gt;UARTBus addressing -->
<g id="edge13" class="edge"><title>Microcontroller&#45;&gt;UARTBus addressing</title>
<path fill="none" stroke="black" d="M1898.27,-877.044C1765.45,-848.797 1412.39,-773.708 1262.19,-741.763"/>
<polygon fill="black" stroke="black" points="1262.68,-738.287 1252.17,-739.63 1261.22,-745.134 1262.68,-738.287"/>
</g>
<!-- UARTBus microcontroller RPC -->
<g id="node18" class="node"><title>UARTBus microcontroller RPC</title>
<ellipse fill="none" stroke="black" cx="1835" cy="-726.047" rx="128.077" ry="18"/>
<text text-anchor="middle" x="1835" y="-722.347" font-family="Times,serif" font-size="14.00">UARTBus microcontroller RPC</text>
</g>
<!-- Microcontroller&#45;&gt;UARTBus microcontroller RPC -->
<g id="edge17" class="edge"><title>Microcontroller&#45;&gt;UARTBus microcontroller RPC</title>
<path fill="none" stroke="black" d="M1937.91,-871.121C1917.69,-842.81 1876.89,-785.697 1853.19,-752.515"/>
<polygon fill="black" stroke="black" points="1855.93,-750.333 1847.27,-744.23 1850.24,-754.402 1855.93,-750.333"/>
</g>
<!-- Gateway -->
<g id="node24" class="node"><title>Gateway</title>
<ellipse fill="none" stroke="black" cx="2897" cy="-726.047" rx="42.4939" ry="18"/>
<text text-anchor="middle" x="2897" y="-722.347" font-family="Times,serif" font-size="14.00">Gateway</text>
</g>
<!-- Microcontroller&#45;&gt;Gateway -->
<g id="edge23" class="edge"><title>Microcontroller&#45;&gt;Gateway</title>
<path fill="none" stroke="black" d="M2010.22,-880.252C2149.55,-861.811 2504.65,-812.486 2798,-752.047 2816,-748.339 2835.65,-743.535 2852.67,-739.13"/>
<polygon fill="black" stroke="black" points="2853.57,-742.514 2862.35,-736.594 2851.79,-735.742 2853.57,-742.514"/>
</g>
<!-- UARTBus host -->
<g id="node29" class="node"><title>UARTBus host</title>
<ellipse fill="none" stroke="black" cx="2460" cy="-726.047" rx="67.6881" ry="18"/>
<text text-anchor="middle" x="2460" y="-722.347" font-family="Times,serif" font-size="14.00">UARTBus host</text>
</g>
<!-- Microcontroller&#45;&gt;UARTBus host -->
<g id="edge28" class="edge"><title>Microcontroller&#45;&gt;UARTBus host</title>
<path fill="none" stroke="black" d="M1992.17,-874.734C2085.13,-845.388 2307.43,-775.211 2408.46,-743.317"/>
<polygon fill="black" stroke="black" points="2409.66,-746.61 2418.14,-740.262 2407.55,-739.934 2409.66,-746.61"/>
</g>
<!-- Wired connection -->
<g id="node3" class="node"><title>Wired connection</title>
<ellipse fill="none" stroke="black" cx="2114" cy="-564.047" rx="76.0865" ry="18"/>
<text text-anchor="middle" x="2114" y="-560.347" font-family="Times,serif" font-size="14.00">Wired connection</text>
</g>
<!-- Bus driver&#45;&gt;Wired connection -->
<g id="edge2" class="edge"><title>Bus driver&#45;&gt;Wired connection</title>
<path fill="none" stroke="black" d="M2071.14,-707.924C2079.47,-680.136 2096.01,-625.005 2105.93,-591.943"/>
<polygon fill="black" stroke="black" points="2109.38,-592.63 2108.9,-582.046 2102.67,-590.619 2109.38,-592.63"/>
</g>
<!-- 12V Pull up one wire FET line driver -->
<g id="node4" class="node"><title>12V Pull up one wire FET line driver</title>
<ellipse fill="none" stroke="black" cx="2148" cy="-401.047" rx="143.775" ry="18"/>
<text text-anchor="middle" x="2148" y="-397.347" font-family="Times,serif" font-size="14.00">12V Pull up one wire FET line driver</text>
</g>
<!-- Wired connection&#45;&gt;12V Pull up one wire FET line driver -->
<g id="edge3" class="edge"><title>Wired connection&#45;&gt;12V Pull up one wire FET line driver</title>
<path fill="none" stroke="black" d="M2117.64,-545.817C2123.54,-517.855 2135.26,-462.38 2142.28,-429.111"/>
<polygon fill="black" stroke="black" points="2145.75,-429.66 2144.39,-419.153 2138.9,-428.214 2145.75,-429.66"/>
</g>
<!-- Time based packet framing -->
<g id="node6" class="node"><title>Time based packet framing</title>
<ellipse fill="none" stroke="black" cx="612" cy="-564.047" rx="108.581" ry="18"/>
<text text-anchor="middle" x="612" y="-560.347" font-family="Times,serif" font-size="14.00">Time based packet framing</text>
</g>
<!-- UARTBus datalink layer&#45;&gt;Time based packet framing -->
<g id="edge5" class="edge"><title>UARTBus datalink layer&#45;&gt;Time based packet framing</title>
<path fill="none" stroke="black" d="M662.007,-707.924C652.239,-680.015 632.818,-624.527 621.264,-591.515"/>
<polygon fill="black" stroke="black" points="624.557,-590.329 617.95,-582.046 617.95,-592.641 624.557,-590.329"/>
</g>
<!-- Collision handling -->
<g id="node7" class="node"><title>Collision handling</title>
<ellipse fill="none" stroke="black" cx="368" cy="-401.047" rx="77.1866" ry="18"/>
<text text-anchor="middle" x="368" y="-397.347" font-family="Times,serif" font-size="14.00">Collision handling</text>
</g>
<!-- Time based packet framing&#45;&gt;Collision handling -->
<g id="edge6" class="edge"><title>Time based packet framing&#45;&gt;Collision handling</title>
<path fill="none" stroke="black" d="M586.807,-546.423C542.469,-517.168 450.523,-456.498 401.113,-423.896"/>
<polygon fill="black" stroke="black" points="402.967,-420.926 392.693,-418.34 399.112,-426.769 402.967,-420.926"/>
</g>
<!-- Interrupt based receive -->
<g id="node8" class="node"><title>Interrupt based receive</title>
<ellipse fill="none" stroke="black" cx="557" cy="-401.047" rx="93.6835" ry="18"/>
<text text-anchor="middle" x="557" y="-397.347" font-family="Times,serif" font-size="14.00">Interrupt based receive</text>
</g>
<!-- Time based packet framing&#45;&gt;Interrupt based receive -->
<g id="edge7" class="edge"><title>Time based packet framing&#45;&gt;Interrupt based receive</title>
<path fill="none" stroke="black" d="M606.114,-545.817C596.521,-517.734 577.447,-461.899 566.098,-428.68"/>
<polygon fill="black" stroke="black" points="569.389,-427.484 562.844,-419.153 562.764,-429.747 569.389,-427.484"/>
</g>
<!-- Multi instance connection -->
<g id="node13" class="node"><title>Multi instance connection</title>
<ellipse fill="none" stroke="black" cx="774" cy="-401.047" rx="105.082" ry="18"/>
<text text-anchor="middle" x="774" y="-397.347" font-family="Times,serif" font-size="14.00">Multi instance connection</text>
</g>
<!-- Time based packet framing&#45;&gt;Multi instance connection -->
<g id="edge12" class="edge"><title>Time based packet framing&#45;&gt;Multi instance connection</title>
<path fill="none" stroke="black" d="M629.031,-546.121C657.76,-517.569 715.965,-459.723 749.221,-426.673"/>
<polygon fill="black" stroke="black" points="752.084,-428.762 756.71,-419.23 747.15,-423.797 752.084,-428.762"/>
</g>
<!-- Packet integrity check -->
<g id="node9" class="node"><title>Packet integrity check</title>
<ellipse fill="none" stroke="black" cx="106" cy="-239.047" rx="90.1842" ry="18"/>
<text text-anchor="middle" x="106" y="-235.347" font-family="Times,serif" font-size="14.00">Packet integrity check</text>
</g>
<!-- Collision handling&#45;&gt;Packet integrity check -->
<g id="edge8" class="edge"><title>Collision handling&#45;&gt;Packet integrity check</title>
<path fill="none" stroke="black" d="M341.436,-383.824C293.966,-354.835 194.578,-294.14 141.383,-261.655"/>
<polygon fill="black" stroke="black" points="142.993,-258.537 132.634,-256.312 139.344,-264.511 142.993,-258.537"/>
</g>
<!-- Fast collision detection -->
<g id="node10" class="node"><title>Fast collision detection</title>
<ellipse fill="none" stroke="black" cx="309" cy="-239.047" rx="94.7833" ry="18"/>
<text text-anchor="middle" x="309" y="-235.347" font-family="Times,serif" font-size="14.00">Fast collision detection</text>
</g>
<!-- Collision handling&#45;&gt;Fast collision detection -->
<g id="edge9" class="edge"><title>Collision handling&#45;&gt;Fast collision detection</title>
<path fill="none" stroke="black" d="M361.686,-382.924C351.395,-355.015 330.934,-299.527 318.76,-266.515"/>
<polygon fill="black" stroke="black" points="322.012,-265.218 315.269,-257.046 315.445,-267.64 322.012,-265.218"/>
</g>
<!-- Simple anti flood protection -->
<g id="node11" class="node"><title>Simple anti flood protection</title>
<ellipse fill="none" stroke="black" cx="534" cy="-239.047" rx="112.38" ry="18"/>
<text text-anchor="middle" x="534" y="-235.347" font-family="Times,serif" font-size="14.00">Simple anti flood protection</text>
</g>
<!-- Collision handling&#45;&gt;Simple anti flood protection -->
<g id="edge10" class="edge"><title>Collision handling&#45;&gt;Simple anti flood protection</title>
<path fill="none" stroke="black" d="M385.451,-383.226C415.091,-354.658 475.351,-296.576 509.306,-263.849"/>
<polygon fill="black" stroke="black" points="511.762,-266.341 516.534,-256.882 506.905,-261.301 511.762,-266.341"/>
</g>
<!-- Retransmit collided packet -->
<g id="node12" class="node"><title>Retransmit collided packet</title>
<ellipse fill="none" stroke="black" cx="772" cy="-239.047" rx="107.482" ry="18"/>
<text text-anchor="middle" x="772" y="-235.347" font-family="Times,serif" font-size="14.00">Retransmit collided packet</text>
</g>
<!-- Collision handling&#45;&gt;Retransmit collided packet -->
<g id="edge11" class="edge"><title>Collision handling&#45;&gt;Retransmit collided packet</title>
<path fill="none" stroke="black" d="M405.645,-385.138C478.961,-356.102 640.865,-291.981 722.657,-259.589"/>
<polygon fill="black" stroke="black" points="724.214,-262.736 732.223,-255.8 721.637,-256.228 724.214,-262.736"/>
</g>
<!-- Basic packet format -->
<g id="node15" class="node"><title>Basic packet format</title>
<ellipse fill="none" stroke="black" cx="986" cy="-564.047" rx="82.5854" ry="18"/>
<text text-anchor="middle" x="986" y="-560.347" font-family="Times,serif" font-size="14.00">Basic packet format</text>
</g>
<!-- UARTBus addressing&#45;&gt;Basic packet format -->
<g id="edge14" class="edge"><title>UARTBus addressing&#45;&gt;Basic packet format</title>
<path fill="none" stroke="black" d="M1171.63,-708.526C1134.34,-679.708 1057.38,-620.217 1015.21,-587.621"/>
<polygon fill="black" stroke="black" points="1017.31,-584.823 1007.26,-581.477 1013.03,-590.362 1017.31,-584.823"/>
</g>
<!-- Variable length addressing -->
<g id="node17" class="node"><title>Variable length addressing</title>
<ellipse fill="none" stroke="black" cx="1193" cy="-564.047" rx="106.681" ry="18"/>
<text text-anchor="middle" x="1193" y="-560.347" font-family="Times,serif" font-size="14.00">Variable length addressing</text>
</g>
<!-- UARTBus addressing&#45;&gt;Variable length addressing -->
<g id="edge16" class="edge"><title>UARTBus addressing&#45;&gt;Variable length addressing</title>
<path fill="none" stroke="black" d="M1193,-707.924C1193,-680.401 1193,-626.055 1193,-592.895"/>
<polygon fill="black" stroke="black" points="1196.5,-592.531 1193,-582.531 1189.5,-592.531 1196.5,-592.531"/>
</g>
<!-- Address and broadcast support -->
<g id="node16" class="node"><title>Address and broadcast support</title>
<ellipse fill="none" stroke="black" cx="1025" cy="-401.047" rx="122.379" ry="18"/>
<text text-anchor="middle" x="1025" y="-397.347" font-family="Times,serif" font-size="14.00">Address and broadcast support</text>
</g>
<!-- Basic packet format&#45;&gt;Address and broadcast support -->
<g id="edge15" class="edge"><title>Basic packet format&#45;&gt;Address and broadcast support</title>
<path fill="none" stroke="black" d="M990.174,-545.817C996.947,-517.855 1010.39,-462.38 1018.44,-429.111"/>
<polygon fill="black" stroke="black" points="1021.9,-429.695 1020.86,-419.153 1015.1,-428.047 1021.9,-429.695"/>
</g>
<!-- RPC packet format -->
<g id="node19" class="node"><title>RPC packet format</title>
<ellipse fill="none" stroke="black" cx="1817" cy="-564.047" rx="79.0865" ry="18"/>
<text text-anchor="middle" x="1817" y="-560.347" font-family="Times,serif" font-size="14.00">RPC packet format</text>
</g>
<!-- UARTBus microcontroller RPC&#45;&gt;RPC packet format -->
<g id="edge18" class="edge"><title>UARTBus microcontroller RPC&#45;&gt;RPC packet format</title>
<path fill="none" stroke="black" d="M1833.07,-707.924C1829.96,-680.256 1823.8,-625.482 1820.07,-592.373"/>
<polygon fill="black" stroke="black" points="1823.51,-591.592 1818.91,-582.046 1816.55,-592.375 1823.51,-591.592"/>
</g>
<!-- UARTBus RPC namespace conventions -->
<g id="node20" class="node"><title>UARTBus RPC namespace conventions</title>
<ellipse fill="none" stroke="black" cx="1480" cy="-401.047" rx="155.972" ry="18"/>
<text text-anchor="middle" x="1480" y="-397.347" font-family="Times,serif" font-size="14.00">UARTBus RPC namespace conventions</text>
</g>
<!-- RPC packet format&#45;&gt;UARTBus RPC namespace conventions -->
<g id="edge19" class="edge"><title>RPC packet format&#45;&gt;UARTBus RPC namespace conventions</title>
<path fill="none" stroke="black" d="M1784.38,-547.463C1723.48,-518.37 1592.48,-455.781 1523.89,-423.016"/>
<polygon fill="black" stroke="black" points="1525.18,-419.75 1514.64,-418.598 1522.16,-426.067 1525.18,-419.75"/>
</g>
<!-- RPC parameter types and call conventions -->
<g id="node21" class="node"><title>RPC parameter types and call conventions</title>
<ellipse fill="none" stroke="black" cx="1817" cy="-401.047" rx="163.271" ry="18"/>
<text text-anchor="middle" x="1817" y="-397.347" font-family="Times,serif" font-size="14.00">RPC parameter types and call conventions</text>
</g>
<!-- RPC packet format&#45;&gt;RPC parameter types and call conventions -->
<g id="edge20" class="edge"><title>RPC packet format&#45;&gt;RPC parameter types and call conventions</title>
<path fill="none" stroke="black" d="M1817,-545.817C1817,-517.976 1817,-462.86 1817,-429.544"/>
<polygon fill="black" stroke="black" points="1820.5,-429.153 1817,-419.153 1813.5,-429.153 1820.5,-429.153"/>
</g>
<!-- RPC request dispatcher -->
<g id="node22" class="node"><title>RPC request dispatcher</title>
<ellipse fill="none" stroke="black" cx="1817" cy="-239.047" rx="94.7833" ry="18"/>
<text text-anchor="middle" x="1817" y="-235.347" font-family="Times,serif" font-size="14.00">RPC request dispatcher</text>
</g>
<!-- RPC parameter types and call conventions&#45;&gt;RPC request dispatcher -->
<g id="edge21" class="edge"><title>RPC parameter types and call conventions&#45;&gt;RPC request dispatcher</title>
<path fill="none" stroke="black" d="M1817,-382.924C1817,-355.401 1817,-301.055 1817,-267.895"/>
<polygon fill="black" stroke="black" points="1820.5,-267.531 1817,-257.531 1813.5,-267.531 1820.5,-267.531"/>
</g>
<!-- Computer -->
<g id="node23" class="node"><title>Computer</title>
<ellipse fill="none" stroke="black" cx="2897" cy="-889.047" rx="47.3916" ry="18"/>
<text text-anchor="middle" x="2897" y="-885.347" font-family="Times,serif" font-size="14.00">Computer</text>
</g>
<!-- Computer&#45;&gt;Gateway -->
<g id="edge22" class="edge"><title>Computer&#45;&gt;Gateway</title>
<path fill="none" stroke="black" d="M2897,-870.817C2897,-842.976 2897,-787.86 2897,-754.544"/>
<polygon fill="black" stroke="black" points="2900.5,-754.153 2897,-744.153 2893.5,-754.153 2900.5,-754.153"/>
</g>
<!-- Frame packets to stream on serial -->
<g id="node25" class="node"><title>Frame packets to stream on serial</title>
<ellipse fill="none" stroke="black" cx="2943" cy="-564.047" rx="131.877" ry="18"/>
<text text-anchor="middle" x="2943" y="-560.347" font-family="Times,serif" font-size="14.00">Frame packets to stream on serial</text>
</g>
<!-- Gateway&#45;&gt;Frame packets to stream on serial -->
<g id="edge24" class="edge"><title>Gateway&#45;&gt;Frame packets to stream on serial</title>
<path fill="none" stroke="black" d="M2901.92,-707.924C2909.91,-680.136 2925.76,-625.005 2935.27,-591.943"/>
<polygon fill="black" stroke="black" points="2938.71,-592.624 2938.11,-582.046 2931.99,-590.69 2938.71,-592.624"/>
</g>
<!-- Computer side bus packet receiver -->
<g id="node26" class="node"><title>Computer side bus packet receiver</title>
<ellipse fill="none" stroke="black" cx="2945" cy="-401.047" rx="133.776" ry="18"/>
<text text-anchor="middle" x="2945" y="-397.347" font-family="Times,serif" font-size="14.00">Computer side bus packet receiver</text>
</g>
<!-- Frame packets to stream on serial&#45;&gt;Computer side bus packet receiver -->
<g id="edge25" class="edge"><title>Frame packets to stream on serial&#45;&gt;Computer side bus packet receiver</title>
<path fill="none" stroke="black" d="M2943.21,-545.817C2943.56,-517.976 2944.24,-462.86 2944.66,-429.544"/>
<polygon fill="black" stroke="black" points="2948.16,-429.195 2944.79,-419.153 2941.16,-429.108 2948.16,-429.195"/>
</g>
<!-- TCP RPC server aka `ub rpcServer` -->
<g id="node27" class="node"><title>TCP RPC server aka `ub rpcServer`</title>
<ellipse fill="none" stroke="black" cx="2946" cy="-239.047" rx="136.476" ry="18"/>
<text text-anchor="middle" x="2946" y="-235.347" font-family="Times,serif" font-size="14.00">TCP RPC server aka `ub rpcServer`</text>
</g>
<!-- Computer side bus packet receiver&#45;&gt;TCP RPC server aka `ub rpcServer` -->
<g id="edge26" class="edge"><title>Computer side bus packet receiver&#45;&gt;TCP RPC server aka `ub rpcServer`</title>
<path fill="none" stroke="black" d="M2945.11,-382.924C2945.28,-355.401 2945.62,-301.055 2945.83,-267.895"/>
<polygon fill="black" stroke="black" points="2949.33,-267.553 2945.89,-257.531 2942.33,-267.509 2949.33,-267.553"/>
</g>
<!-- Steady server, serial reconnection -->
<g id="node28" class="node"><title>Steady server, serial reconnection</title>
<ellipse fill="none" stroke="black" cx="2946" cy="-77.0466" rx="131.877" ry="18"/>
<text text-anchor="middle" x="2946" y="-73.3466" font-family="Times,serif" font-size="14.00">Steady server, serial reconnection</text>
</g>
<!-- TCP RPC server aka `ub rpcServer`&#45;&gt;Steady server, serial reconnection -->
<g id="edge27" class="edge"><title>TCP RPC server aka `ub rpcServer`&#45;&gt;Steady server, serial reconnection</title>
<path fill="none" stroke="black" d="M2946,-220.924C2946,-193.401 2946,-139.055 2946,-105.895"/>
<polygon fill="black" stroke="black" points="2949.5,-105.531 2946,-95.5313 2942.5,-105.531 2949.5,-105.531"/>
</g>
<!-- Basic node host function -->
<g id="node30" class="node"><title>Basic node host function</title>
<ellipse fill="none" stroke="black" cx="2460" cy="-564.047" rx="100.182" ry="18"/>
<text text-anchor="middle" x="2460" y="-560.347" font-family="Times,serif" font-size="14.00">Basic node host function</text>
</g>
<!-- UARTBus host&#45;&gt;Basic node host function -->
<g id="edge29" class="edge"><title>UARTBus host&#45;&gt;Basic node host function</title>
<path fill="none" stroke="black" d="M2460,-707.924C2460,-680.401 2460,-626.055 2460,-592.895"/>
<polygon fill="black" stroke="black" points="2463.5,-592.531 2460,-582.531 2456.5,-592.531 2463.5,-592.531"/>
</g>
<!-- Application management -->
<g id="node33" class="node"><title>Application management</title>
<ellipse fill="none" stroke="black" cx="2681" cy="-564.047" rx="102.882" ry="18"/>
<text text-anchor="middle" x="2681" y="-560.347" font-family="Times,serif" font-size="14.00">Application management</text>
</g>
<!-- UARTBus host&#45;&gt;Application management -->
<g id="edge32" class="edge"><title>UARTBus host&#45;&gt;Application management</title>
<path fill="none" stroke="black" d="M2482.41,-708.824C2521.99,-680.164 2604.39,-620.513 2649.61,-587.771"/>
<polygon fill="black" stroke="black" points="2651.82,-590.491 2657.87,-581.792 2647.72,-584.821 2651.82,-590.491"/>
</g>
<!-- Response ping, blink user_led, reboot -->
<g id="node31" class="node"><title>Response ping, blink user_led, reboot</title>
<ellipse fill="none" stroke="black" cx="2460" cy="-401.047" rx="144.075" ry="18"/>
<text text-anchor="middle" x="2460" y="-397.347" font-family="Times,serif" font-size="14.00">Response ping, blink user_led, reboot</text>
</g>
<!-- Basic node host function&#45;&gt;Response ping, blink user_led, reboot -->
<g id="edge30" class="edge"><title>Basic node host function&#45;&gt;Response ping, blink user_led, reboot</title>
<path fill="none" stroke="black" d="M2460,-545.817C2460,-517.976 2460,-462.86 2460,-429.544"/>
<polygon fill="black" stroke="black" points="2463.5,-429.153 2460,-419.153 2456.5,-429.153 2463.5,-429.153"/>
</g>
<!-- Upload applications -->
<g id="node32" class="node"><title>Upload applications</title>
<ellipse fill="none" stroke="black" cx="2704" cy="-401.047" rx="81.7856" ry="18"/>
<text text-anchor="middle" x="2704" y="-397.347" font-family="Times,serif" font-size="14.00">Upload applications</text>
</g>
<!-- Basic node host function&#45;&gt;Upload applications -->
<g id="edge31" class="edge"><title>Basic node host function&#45;&gt;Upload applications</title>
<path fill="none" stroke="black" d="M2485.19,-546.423C2529.53,-517.168 2621.48,-456.498 2670.89,-423.896"/>
<polygon fill="black" stroke="black" points="2672.89,-426.769 2679.31,-418.34 2669.03,-420.926 2672.89,-426.769"/>
</g>
</g>
</svg>
